HIERARCHY
ROOT joint_Root
{
	OFFSET 0.0 0.0 0.0
	CHANNELS 6 Xposition Yposition Zposition Zrotation Xrotation Yrotation 
	JOINT Hips
	{
		OFFSET -0.726466 93.3139 -2.00062
		CHANNELS 6 Xposition Yposition Zposition Zrotation Xrotation Yrotation 
		JOINT Spine
		{
			OFFSET 15.7357 0.0 0.0
			CHANNELS 6 Xposition Yposition Zposition Zrotation Xrotation Yrotation 
			JOINT Chest
			{
				OFFSET 8.98455 -0.406207 0.0
				CHANNELS 6 Xposition Yposition Zposition Zrotation Xrotation Yrotation 
				JOINT Neck
				{
					OFFSET 16.3773 0.0 0.0
					CHANNELS 6 Xposition Yposition Zposition Zrotation Xrotation Yrotation 
					JOINT Head
					{
						OFFSET 6.45672 0.0 0.0
						CHANNELS 6 Xposition Yposition Zposition Zrotation Xrotation Yrotation 
						End Site
						{
							OFFSET 0.0 0.0 0.0
						}
					}
				}
				JOINT Shoulder_L
				{
					OFFSET 12.9942 -0.242716 4.98039
					CHANNELS 6 Xposition Yposition Zposition Zrotation Xrotation Yrotation 
					JOINT UpperArm_L
					{
						OFFSET 5.34809 0.0 0.0
						CHANNELS 6 Xposition Yposition Zposition Zrotation Xrotation Yrotation 
						JOINT LowerArm_L
						{
							OFFSET 24.3286 1.87007e-05 0.0
							CHANNELS 6 Xposition Yposition Zposition Zrotation Xrotation Yrotation 
							JOINT Hand_L
							{
								OFFSET 22.2916 0.0 0.0
								CHANNELS 6 Xposition Yposition Zposition Zrotation Xrotation Yrotation 
								End Site
								{
									OFFSET 0.0 0.0 0.0
								}
							}
						}
					}
				}
				JOINT Shoulder_R
				{
					OFFSET 12.9945 -0.242716 -4.98039
					CHANNELS 6 Xposition Yposition Zposition Zrotation Xrotation Yrotation 
					JOINT UpperArm_R
					{
						OFFSET -5.34813 0.0 0.0
						CHANNELS 6 Xposition Yposition Zposition Zrotation Xrotation Yrotation 
						JOINT LowerArm_R
						{
							OFFSET -24.3289 0.000322201 0.0
							CHANNELS 6 Xposition Yposition Zposition Zrotation Xrotation Yrotation 
							JOINT Hand_R
							{
								OFFSET -22.2915 -0.000108084 0.0
								CHANNELS 6 Xposition Yposition Zposition Zrotation Xrotation Yrotation 
								End Site
								{
									OFFSET 0.0 0.0 0.0
								}
							}
						}
					}
				}
			}
		}
		JOINT UpperLeg_L
		{
			OFFSET -2.19248 -6.46944 0.0
			CHANNELS 6 Xposition Yposition Zposition Zrotation Xrotation Yrotation 
			JOINT LowerLeg_L
			{
				OFFSET 39.0811 0.0 -1.23785e-05
				CHANNELS 6 Xposition Yposition Zposition Zrotation Xrotation Yrotation 
				JOINT Foot_L
				{
					OFFSET 40.9854 0.0 -1.26872e-05
					CHANNELS 6 Xposition Yposition Zposition Zrotation Xrotation Yrotation 
					JOINT Toes_L
					{
						OFFSET 11.7543 0.0 0.0
						CHANNELS 6 Xposition Yposition Zposition Zrotation Xrotation Yrotation 
						End Site
						{
							OFFSET 0.0 0.0 0.0
						}
					}
				}
			}
		}
		JOINT UpperLeg_R
		{
			OFFSET -2.19251 6.46944 0.0
			CHANNELS 6 Xposition Yposition Zposition Zrotation Xrotation Yrotation 
			JOINT LowerLeg_R
			{
				OFFSET -39.0811 -0.00228153 -0.0401928
				CHANNELS 6 Xposition Yposition Zposition Zrotation Xrotation Yrotation 
				JOINT Foot_R
				{
					OFFSET -40.9854 0.0 0.0
					CHANNELS 6 Xposition Yposition Zposition Zrotation Xrotation Yrotation 
					JOINT Toes_R
					{
						OFFSET -11.7543 0.0 0.0
						CHANNELS 6 Xposition Yposition Zposition Zrotation Xrotation Yrotation 
						End Site
						{
							OFFSET 0.0 0.0 0.0
						}
					}
				}
			}
		}
	}
}
MOTION
Frames:	4
Frame Time:	0.0333333
0.000000 0.000000 0.000000 0.000000 0.000000 -0.000000 -1.253620 92.436700 -2.396030 88.013200 -0.596118 3.937510 15.735700 0.000005 -0.000001 85.435300 85.193300 -84.818100 8.984550 -0.406207 -0.000000 1.821610 -0.796621 1.245990 16.377300 -0.000001 -0.000001 3.048700 -2.654700 1.060790 6.456720 -0.000001 -0.000000 4.435310 -3.177420 -0.667031 12.994200 -0.242716 4.980390 -89.952300 -0.150251 -72.370600 5.348090 -0.000007 -0.000001 -67.228900 42.535100 -15.130800 24.328600 0.000019 0.000005 1.098390 2.549820 -23.313500 22.291600 -0.000001 0.000005 4.271020 5.513630 -7.092840 12.994500 -0.242716 -4.980390 88.096100 6.473690 -73.572800 -5.348130 -0.000001 -0.000004 -66.048400 38.043200 -16.055600 -24.328900 0.000322 -0.000009 2.451440 8.007580 -17.089800 -22.291500 -0.000108 -0.000004 6.952580 5.371810 -2.042660 -2.192480 -6.469440 -0.000000 -175.393000 -4.801290 -3.378520 39.081100 -0.000007 -0.000012 -0.089738 0.217163 22.451900 40.985400 -0.000006 -0.000013 -0.463567 3.589040 -65.397600 11.754300 -0.000000 0.000003 -0.000049 -0.000552 -16.599000 -2.192510 6.469440 -0.000001 -179.515000 14.156400 179.748000 -39.081100 -0.002282 -0.040193 -0.000119 0.010071 18.870600 -40.985400 0.000008 0.000006 4.738960 6.608450 -65.401900 -11.754300 -0.000006 -0.000006 -0.006224 -0.072854 -19.538300
0.000000 0.000000 0.000000 0.000000 0.000000 -0.000000 -1.254770 92.429900 -2.424140 88.008300 -0.552152 3.972210 15.735700 0.000005 -0.000001 85.405400 85.181900 -84.834700 8.984550 -0.406207 -0.000000 1.843530 -0.800913 1.153200 16.377300 -0.000001 -0.000001 3.035470 -2.639280 1.020050 6.456720 -0.000001 -0.000000 4.485140 -3.139580 -0.601674 12.994200 -0.242716 4.980390 -89.930100 -0.219844 -72.357800 5.348090 -0.000007 -0.000001 -67.171600 42.427600 -15.284900 24.328600 0.000019 0.000005 1.079360 2.503960 -23.327200 22.291600 -0.000001 0.000005 4.247920 5.513690 -7.095150 12.994500 -0.242716 -4.980390 88.054700 6.581800 -73.494200 -5.348130 -0.000001 -0.000004 -66.037300 36.088800 -16.110900 -24.328900 0.000322 -0.000009 2.890260 8.655270 -18.552000 -22.291500 -0.000108 -0.000004 5.172770 5.362070 -1.741420 -2.192480 -6.469440 -0.000000 -175.371000 -4.845060 -3.403710 39.081100 -0.000007 -0.000012 -0.090832 0.219076 22.519600 40.985400 -0.000006 -0.000013 -0.449900 3.676360 -65.406700 11.754300 -0.000000 0.000003 -0.000047 -0.000533 -16.598300 -2.192510 6.469440 -0.000001 -179.512000 14.128800 179.728000 -39.081100 -0.002282 -0.040193 -0.002971 0.018351 18.932200 -40.985400 0.000008 0.000006 4.664940 6.533680 -65.395700 -11.754300 -0.000006 -0.000006 -0.006212 -0.072749 -19.534000
0.000000 0.000000 0.000000 0.000000 0.000000 -0.000000 -1.261050 92.437600 -2.481580 88.020200 -0.520643 3.974800 15.735700 0.000005 -0.000001 84.711500 85.188100 -84.219700 8.984550 -0.406207 -0.000000 1.821190 -0.912004 0.997279 16.377300 -0.000001 -0.000001 3.066310 -2.586090 0.865649 6.456720 -0.000001 -0.000000 4.577900 -2.973100 -0.313162 12.994200 -0.242716 4.980390 -89.884500 -0.363002 -72.351100 5.348090 -0.000007 -0.000001 -67.343200 42.131300 -15.221800 24.328600 0.000019 0.000005 1.038170 2.402990 -23.373300 22.291600 -0.000001 0.000005 4.358230 5.512840 -7.059660 12.994500 -0.242716 -4.980390 87.934100 6.943990 -73.386300 -5.348130 -0.000001 -0.000004 -65.724500 32.312600 -16.665600 -24.328900 0.000322 -0.000009 2.925050 7.760920 -20.735200 -22.291500 -0.000108 -0.000004 2.827000 5.354290 -1.503420 -2.192480 -6.469440 -0.000000 -175.386000 -4.807690 -3.436500 39.081100 -0.000007 -0.000012 -0.091807 0.221788 22.486800 40.985400 -0.000006 -0.000013 -0.451554 3.680960 -65.341600 11.754300 -0.000000 0.000003 -0.000049 -0.000553 -16.599100 -2.192510 6.469440 -0.000001 -179.481000 14.016900 179.686000 -39.081100 -0.002282 -0.040193 -0.001122 0.012965 18.923000 -40.985400 0.000008 0.000006 4.669320 6.388730 -65.343200 -11.754300 -0.000006 -0.000006 -0.005955 -0.070422 -19.439100
0.000000 0.000000 0.000000 0.000000 0.000000 -0.000000 -1.245220 92.436700 -2.526900 88.023300 -0.550550 3.992830 15.735700 0.000005 -0.000001 83.398300 85.204300 -82.981300 8.984550 -0.406207 -0.000000 1.766340 -1.123880 0.850558 16.377300 -0.000001 -0.000001 3.178380 -2.497050 0.724411 6.456720 -0.000001 -0.000000 4.695430 -2.707790 -0.283648 12.994200 -0.242716 4.980390 -89.847600 -0.479601 -72.367900 5.348090 -0.000007 -0.000001 -67.557300 41.873000 -15.010300 24.328600 0.000019 0.000005 1.025950 2.377930 -23.344900 22.291600 -0.000001 0.000005 4.299020 5.512670 -7.052780 12.994500 -0.242716 -4.980390 87.813700 7.246790 -73.162100 -5.348130 -0.000001 -0.000004 -64.926600 27.723000 -18.423200 -24.328900 0.000322 -0.000009 2.696570 6.148460 -23.749700 -22.291500 -0.000108 -0.000004 1.424590 5.338060 -1.022010 -2.192480 -6.469440 -0.000000 -175.397000 -4.854820 -3.449390 39.081100 -0.000007 -0.000012 -0.089797 0.216678 22.510400 40.985400 -0.000006 -0.000013 -0.436791 3.694340 -65.332400 11.754300 -0.000000 0.000003 -0.000052 -0.000589 -16.600400 -2.192510 6.469440 -0.000001 -179.465000 13.898500 179.639000 -39.081100 -0.002282 -0.040193 0.000090 0.009402 18.979200 -40.985400 0.000008 0.000006 4.699090 6.273680 -65.335900 -11.754300 -0.000006 -0.000006 -0.006103 -0.071771 -19.494100
